Coordinates
version=1
nRows=17
nColumns=40
inDegrees=yes

Units are S.I. units (second, meters, Newtons, ...)
If the header above contains a line with 'inDegrees', this indicates whether rotational values are in degrees (yes) or radians (no).

endheader
time	pelvis_tilt	pelvis_list	pelvis_rotation	pelvis_tx	pelvis_ty	pelvis_tz	hip_flexion_r	hip_adduction_r	hip_rotation_r	knee_angle_r	knee_angle_r_beta	ankle_angle_r	subtalar_angle_r	mtp_angle_r	hip_flexion_l	hip_adduction_l	hip_rotation_l	knee_angle_l	knee_angle_l_beta	ankle_angle_l	subtalar_angle_l	mtp_angle_l	lumbar_extension	lumbar_bending	lumbar_rotation	arm_flex_r	arm_add_r	arm_rot_r	elbow_flex_r	pro_sup_r	wrist_flex_r	wrist_dev_r	arm_flex_l	arm_add_l	arm_rot_l	elbow_flex_l	pro_sup_l	wrist_flex_l	wrist_dev_l
      1.27500000	      0.26865723	     29.61417668	    -16.09295445	      1.17956502	      0.67445862	      0.20050253	    -29.83660048	    -45.62113416	     -8.50274054	     48.36855039	      0.84419046	    -38.89659375	      0.00000000	      0.00000000	     70.43457806	      1.81299889	    -18.56613543	     46.70059983	      0.81507923	    -26.84791456	      0.00000000	      0.00000000	      8.47257320	    -59.26014021	    -47.36272126	     16.01570932	    -59.20092755	    -89.96017228	    149.80649695	     13.34119463	      0.00000000	      0.00000000	     58.19914173	   -119.85826296	     89.97309438	    134.20204028	      0.59375901	      0.00000000	      0.00000000
      1.27777778	     -2.71172250	     32.84172860	    -13.01158574	      1.18662762	      0.67001614	      0.20048224	    -29.83872479	    -47.11748262	    -12.56192934	     48.30727441	      0.84312099	    -38.76271123	      0.00000000	      0.00000000	     73.26317343	      4.00655459	    -20.72620568	     46.22772398	      0.80682599	    -26.96512924	      0.00000000	      0.00000000	     10.93329331	    -62.85434639	    -46.35710367	     23.36477353	    -62.04798621	    -89.95611268	    149.75625152	     12.23883489	      0.00000000	      0.00000000	     59.33827489	   -119.74999555	     89.97331436	    134.71197523	      0.59455962	      0.00000000	      0.00000000
      1.28055556	    -33.57216079	      7.37499702	      2.34883185	      1.24161583	      0.62315522	      0.14832456	     -7.43868766	    -17.16022673	     -9.74033559	     37.00544342	      0.64586683	    -39.39218883	      0.00000000	      0.00000000	    104.63285442	      7.11442474	      5.93202977	     56.05731645	      0.97838474	    -21.93826131	      0.00000000	      0.00000000	     36.19667677	    -26.81118377	    -42.42181970	     89.93969739	   -119.85161290	    -57.99417571	    122.50711929	      6.92804584	      0.00000000	      0.00000000	    -29.50225238	    -40.49134578	     -0.37539436	    110.18187145	     15.62083375	      0.00000000	      0.00000000
      1.28333333	    -33.54424223	      7.16410749	      4.09445769	      1.24304802	      0.62309638	      0.14550962	     -8.23353371	    -16.81005758	    -11.68180089	     36.99028432	      0.64560225	    -39.36066596	      0.00000000	      0.00000000	    104.53269168	      8.77673844	      5.54897312	     55.85123081	      0.97478787	    -22.05740928	      0.00000000	      0.00000000	     34.85780577	    -28.01788564	    -41.77570152	     89.93956339	   -119.83466303	    -61.24597733	    122.62351185	      6.89993188	      0.00000000	      0.00000000	    -25.83575964	    -40.97640871	      2.60286742	    108.99392961	     16.13960460	      0.00000000	      0.00000000
      1.28611111	    -33.41636273	      6.63837456	      6.29520278	      1.24468524	      0.62317414	      0.14248807	     -9.20030018	    -16.01247124	    -14.02935173	     37.06446443	      0.64689694	    -39.29377765	      0.00000000	      0.00000000	    104.24058284	     10.76689927	      5.11995750	     55.47539572	      0.96822831	    -22.11945902	      0.00000000	      0.00000000	     32.72537905	    -29.31875879	    -40.68875227	     89.93936026	   -119.79532780	    -66.07964032	    122.76140740	      6.92398371	      0.00000000	      0.00000000	    -20.14551120	    -41.44968871	      7.29238892	    107.05510579	     17.34601520	      0.00000000	      0.00000000
      1.28888889	    -33.06139446	      6.15875976	      8.40367637	      1.24625691	      0.62386298	      0.13995739	    -10.27447761	    -15.21380637	    -16.35481074	     37.21233567	      0.64947778	    -39.20417712	      0.00000000	      0.00000000	    103.64774016	     12.65099054	      4.65758838	     55.03066280	      0.96046626	    -21.92189009	      0.00000000	      0.00000000	     30.24115006	    -30.49109478	    -39.67135742	     89.93944368	   -119.72755062	    -70.71553168	    122.78371985	      6.95732852	      0.00000000	      0.00000000	    -14.38148555	    -41.64217489	     12.09693451	    104.85299393	     19.51003768	      0.00000000	      0.00000000
      1.29166667	    -32.67754079	      5.40737093	      9.84455949	      1.24728413	      0.62463214	      0.13907866	    -10.82799846	    -14.16089271	    -17.71046792	     37.63630657	      0.65687747	    -39.07812260	      0.00000000	      0.00000000	    103.01495283	     13.84588601	      4.61172838	     54.62674193	      0.95341651	    -21.82820930	      0.00000000	      0.00000000	     27.90570946	    -30.94551046	    -38.23386645	     89.93958367	   -119.57846549	    -75.31467398	    122.59632368	      6.77387181	      0.00000000	      0.00000000	     -8.45727096	    -41.43887136	     17.01717909	    102.00177707	     24.26386409	      0.00000000	      0.00000000
      1.29444444	    -32.59718623	      4.90504802	     10.64993344	      1.24755165	      0.62493447	      0.13880095	    -10.80049053	    -13.54809758	    -18.37384236	     38.16097989	      0.66603474	    -38.94490372	      0.00000000	      0.00000000	    102.74620889	     14.46738757	      4.63469257	     54.29555855	      0.94763627	    -21.80398191	      0.00000000	      0.00000000	     26.59108267	    -31.13985760	    -37.17453538	     89.93940428	   -119.33229939	    -78.20890362	    122.38831505	      6.76216553	      0.00000000	      0.00000000	     -4.72618809	    -41.06007653	     20.14872873	    100.72248614	     24.28599561	      0.00000000	      0.00000000
      1.29722222	    -31.65008516	      3.20334222	     11.70394050	      1.24808134	      0.62590187	      0.13948091	    -11.41775033	    -11.23456231	    -18.81930749	     38.52941461	      0.67246514	    -38.69776377	      0.00000000	      0.00000000	    101.69640421	     15.28044244	      5.66626564	     54.17231781	      0.94548531	    -21.46735241	      0.00000000	      0.00000000	     23.58908716	    -30.25133399	    -36.53898859	     89.93751683	   -118.05324691	    -82.55305340	    122.47049305	      6.61244279	      0.00000000	      0.00000000	      0.22737640	    -40.22061193	     23.92834822	     98.55260450	     27.19353441	      0.00000000	      0.00000000
      1.30000000	    -31.10732076	      1.11142420	     12.16853701	      1.24768621	      0.62624566	      0.14129014	    -11.04576338	     -8.71495585	    -18.38615516	     39.25996385	      0.68521563	    -38.28712419	      0.00000000	      0.00000000	    101.05911844	     15.41967291	      7.14516358	     53.98857938	      0.94227847	    -21.39295866	      0.00000000	      0.00000000	     21.40024021	    -28.71450974	    -35.99467046	     89.93203341	   -115.19270677	    -86.45390977	    123.24562686	      6.43675630	      0.00000000	      0.00000000	      3.82269361	    -39.03719818	     26.28388250	     96.88537726	     29.67279167	      0.00000000	      0.00000000
      1.30277778	    -30.99460795	     -1.10591066	     12.26058127	      1.24691092	      0.62584567	      0.14401599	     -9.97513407	     -6.27334174	    -17.69978180	     40.27724730	      0.70297058	    -37.56966817	      0.00000000	      0.00000000	    100.90215791	     15.12932485	      8.80016948	     53.79786975	      0.93894996	    -21.47424235	      0.00000000	      0.00000000	     20.06965209	    -26.96457320	    -35.23832232	     89.92769993	   -111.52647332	    -89.22964634	    124.17673053	      6.52277690	      0.00000000	      0.00000000	      6.65488919	    -37.74580721	     27.81336860	     95.36753720	     32.95393881	      0.00000000	      0.00000000
      1.30555556	    -31.33956813	     -2.80733399	     12.48064582	      1.24659199	      0.62489526	      0.14656433	     -8.58342428	     -4.48471894	    -17.37139091	     41.41889724	      0.72289613	    -36.56260985	      0.00000000	      0.00000000	    101.13254703	     14.93943003	      9.90250455	     53.45871303	      0.93303056	    -21.54767594	      0.00000000	      0.00000000	     19.44083867	    -25.90219910	    -34.52339149	     89.93169997	   -107.20733453	    -89.76706388	    125.26490315	      6.62805117	      0.00000000	      0.00000000	      8.68431210	    -36.49146012	     28.72036821	     94.34240580	     34.84122497	      0.00000000	      0.00000000
      1.30833333	    -31.45266338	     -3.19747389	     12.79117806	      1.24669739	      0.62500437	      0.14734807	     -8.08705112	     -4.22613175	    -17.88936652	     42.10339212	      0.73484282	    -36.19621760	      0.00000000	      0.00000000	    101.04639526	     14.98226622	      9.93581450	     53.10602963	      0.92687507	    -21.45894942	      0.00000000	      0.00000000	     18.79872436	    -25.93620533	    -33.96716165	     89.93406975	   -104.28173451	    -89.84388087	    125.67187338	      6.73950274	      0.00000000	      0.00000000	      9.98434478	    -35.74610841	     29.38557845	     93.86162493	     34.86298453	      0.00000000	      0.00000000
      1.31111111	    -31.41107219	     -3.77727588	     13.10797195	      1.24604042	      0.62574718	      0.14866902	     -7.28100143	     -3.92005595	    -18.49102397	     43.59490426	      0.76087462	    -35.17753846	      0.00000000	      0.00000000	    100.67098390	     15.03317336	     10.34325167	     52.46956978	      0.91576675	    -21.42133418	      0.00000000	      0.00000000	     17.54691107	    -25.80028951	    -33.15419143	     89.93495496	    -99.61191899	    -89.89257600	    126.13243259	      7.02467385	      0.00000000	      0.00000000	     11.85685815	    -34.68296129	     30.13799203	     93.34615976	     35.03516659	      0.00000000	      0.00000000
      1.31388889	    -30.82099144	     -4.81859698	     13.19650303	      1.24497329	      0.62744814	      0.15053108	     -6.78045525	     -2.89307044	    -18.46213487	     45.06570238	      0.78654489	    -33.25723917	      0.00000000	      0.00000000	     99.82925184	     14.79008833	     11.23349748	     51.95105138	      0.90671690	    -21.61871194	      0.00000000	      0.00000000	     15.71936112	    -24.85506773	    -32.64614342	     89.93222892	    -94.39335378	    -89.91602292	    126.07437779	      7.66014620	      0.00000000	      0.00000000	     13.23447233	    -33.60262417	     29.89315849	     92.76843517	     37.91031790	      0.00000000	      0.00000000
      1.31666667	    -30.49071944	     -5.31050092	     13.27795377	      1.24357851	      0.63002263	      0.15227427	     -6.09495543	     -2.75173181	    -19.04529143	     46.56180163	      0.81265674	    -32.85116861	      0.00000000	      0.00000000	     99.06064752	     14.53117538	     11.62106763	     51.19422294	      0.89350775	    -21.61071309	      0.00000000	      0.00000000	     14.07154612	    -24.51644278	    -31.69552310	     89.92829075	    -89.91174323	    -89.92855972	    124.81788571	      7.67260008	      0.00000000	      0.00000000	     15.05188897	    -32.65658047	     30.44172381	     92.32538142	     38.10835508	      0.00000000	      0.00000000
      1.31944444	    -29.10259413	     -5.65698070	     13.47945703	      1.24301613	      0.63362860	      0.15288520	     -6.93017974	     -2.24353990	    -19.19047989	     47.28640151	      0.82530340	    -31.83457736	      0.00000000	      0.00000000	     97.38427731	     14.52759418	     12.34027908	     50.82357712	      0.88703876	    -21.73013077	      0.00000000	      0.00000000	     11.55833873	    -23.89149681	    -31.41626197	     89.92339970	    -86.68571553	    -89.93464615	    123.65731877	      8.70671613	      0.00000000	      0.00000000	     16.27853324	    -32.05386947	     30.23909548	     91.60584275	     42.48397132	      0.00000000	      0.00000000
